<?xml version="1.0" encoding="utf-8"?>
<!-- Generator: Adobe Illustrator 24.3.0, SVG Export Plug-In . SVG Version: 6.00 Build 0)  -->
<svg version="1.1" id="Layer_1" xmlns="http://www.w3.org/2000/svg" xmlns:xlink="http://www.w3.org/1999/xlink" x="0px" y="0px"
	 viewBox="0 0 404.7 212.4" style="enable-background:new 0 0 404.7 212.4;" xml:space="preserve">
<style type="text/css">
	.st0{fill:url(#SVGID_1_);}
	.st1{fill:url(#SVGID_2_);}
	.st2{fill:none;stroke:url(#SVGID_3_);stroke-width:0.1308;stroke-miterlimit:5.0314;}
	.st3{fill:url(#SVGID_4_);}
	.st4{fill:none;stroke:url(#SVGID_5_);stroke-width:0.1308;stroke-miterlimit:5.0314;}
	.st5{fill:#FFFFFF;}
</style>
<linearGradient id="SVGID_1_" gradientUnits="userSpaceOnUse" x1="-8.1638" y1="311.4084" x2="-8.1638" y2="301.8765" gradientTransform="matrix(1.2579 0 0 -1.2579 17.991 393.2962)">
	<stop  offset="0" style="stop-color:#A4C1FF"/>
	<stop  offset="1" style="stop-color:#0E78F9"/>
</linearGradient>
<path class="st0" d="M6,1.6c0.2,0,0.4,0,0.7,0h2.2c0.2,0,0.4,0,0.7,0c0.6,0,1.2,0,1.6,0c1.5,0.1,2.5,1,2.6,2.5c0,0.5,0,1.2,0,2v0
	c0,0.1,0,0.3,0,0.4v2.2c0,0.1,0,0.3,0,0.4c0,0.8,0,1.4,0,2c-0.1,1.5-1.1,2.4-2.6,2.5c-0.4,0-1,0-1.6,0c-0.2,0-0.4,0-0.7,0H6.6
	c-0.2,0-0.4,0-0.7,0c-0.6,0-1.2,0-1.6,0c-1.5-0.1-2.5-1-2.6-2.5c0-0.5,0-1.2,0-2v0c0-0.1,0-0.3,0-0.4V6.5c0-0.1,0-0.3,0-0.4v0
	c0-0.8,0-1.4,0-2c0.1-1.5,1.1-2.4,2.6-2.5C4.8,1.6,5.4,1.6,6,1.6z"/>
<g>
	
		<linearGradient id="SVGID_2_" gradientUnits="userSpaceOnUse" x1="-9.0656" y1="308.4501" x2="-9.0656" y2="304.8562" gradientTransform="matrix(1.2579 0 0 -1.2579 17.991 393.2962)">
		<stop  offset="0" style="stop-color:#FFFFFF"/>
		<stop  offset="1" style="stop-color:#C5D4F7"/>
	</linearGradient>
	<path class="st1" d="M3.7,5.9c0-0.3,0.2-0.6,0.6-0.6h3.9c0.8,0,1.4,0.6,1.4,1.4v2.6c0,0.3-0.2,0.6-0.6,0.6H5.1
		c-0.8,0-1.4-0.6-1.4-1.4V5.9z"/>
	
		<linearGradient id="SVGID_3_" gradientUnits="userSpaceOnUse" x1="-9.0656" y1="308.4501" x2="-9.0656" y2="304.8562" gradientTransform="matrix(1.2579 0 0 -1.2579 17.991 393.2962)">
		<stop  offset="0" style="stop-color:#FFFFFF"/>
		<stop  offset="1" style="stop-color:#637ACA"/>
	</linearGradient>
	<path class="st2" d="M4.2,5.4h3.9c0.7,0,1.3,0.6,1.3,1.3v2.6c0,0.3-0.2,0.5-0.5,0.5H5.1c-0.7,0-1.3-0.6-1.3-1.3V5.9
		C3.7,5.6,4,5.4,4.2,5.4z"/>
</g>
<g>
	
		<linearGradient id="SVGID_4_" gradientUnits="userSpaceOnUse" x1="-5.7086" y1="308.4154" x2="-5.7086" y2="304.882" gradientTransform="matrix(1.2579 0 0 -1.2579 17.991 393.2962)">
		<stop  offset="0" style="stop-color:#FFFFFF"/>
		<stop  offset="1" style="stop-color:#C5D4F7"/>
	</linearGradient>
	<path class="st3" d="M9.8,6.9c0-0.2,0.1-0.4,0.2-0.5l1.1-1c0.2-0.2,0.6,0,0.6,0.3v3.7c0,0.3-0.4,0.5-0.6,0.3l-1-0.9
		C10,8.7,9.8,8.4,9.8,8.2V6.9z"/>
	
		<linearGradient id="SVGID_5_" gradientUnits="userSpaceOnUse" x1="-5.7086" y1="308.4154" x2="-5.7086" y2="304.882" gradientTransform="matrix(1.2579 0 0 -1.2579 17.991 393.2962)">
		<stop  offset="0" style="stop-color:#FFFFFF"/>
		<stop  offset="1" style="stop-color:#637ACA"/>
	</linearGradient>
	<path class="st4" d="M10.1,6.5l1.1-1c0.2-0.2,0.5,0,0.5,0.2v3.7c0,0.3-0.3,0.4-0.5,0.2l-1-0.9C10,8.6,9.9,8.4,9.9,8.2V6.9
		C9.9,6.7,10,6.6,10.1,6.5z"/>
</g>
<g>
	<path class="st5" d="M16.4,8.6v2.8h-1.7v-7h3.1c0.6,0,1,0.1,1.4,0.2c0.3,0.1,0.6,0.4,0.9,0.7c0.2,0.4,0.3,0.7,0.3,1.2
		c0,0.8-0.4,1.4-1.2,1.8l1.3,3.1h-1.8l-1.1-2.8H16.4z M16.4,5.6v1.8h1c0.3,0,0.6,0,0.7-0.1c0.1,0,0.3-0.1,0.4-0.3
		c0.1-0.2,0.2-0.3,0.2-0.5c0-0.2-0.1-0.4-0.2-0.5c-0.1-0.2-0.2-0.2-0.4-0.3c-0.1,0-0.4-0.1-0.8-0.1H16.4z"/>
	<path class="st5" d="M26.7,5.7h-3.3v1.4H26v1.3h-2.6V10h3.3v1.4h-5v-7h5V5.7z"/>
	<path class="st5" d="M29.4,10h2.8v1.4h-4.5v-7h1.7V10z"/>
	<path class="st5" d="M35.6,11.5c-0.9,0-1.7-0.4-2.2-1.1c-0.5-0.7-0.8-1.6-0.8-2.6c0-1,0.3-1.9,0.8-2.6c0.5-0.7,1.3-1,2.2-1
		c1,0,1.7,0.4,2.2,1.1c0.5,0.7,0.7,1.6,0.7,2.5c0,1-0.3,1.9-0.8,2.6C37.3,11.1,36.5,11.5,35.6,11.5z M35.6,5.6
		c-0.9,0-1.3,0.8-1.3,2.3c0,1.5,0.4,2.3,1.3,2.3c0.8,0,1.3-0.8,1.3-2.3C36.9,6.3,36.4,5.6,35.6,5.6z"/>
	<path class="st5" d="M41.3,8.6v2.8h-1.7v-7h3.1c0.6,0,1,0.1,1.4,0.2c0.3,0.1,0.6,0.4,0.9,0.7c0.2,0.4,0.3,0.7,0.3,1.2
		c0,0.8-0.4,1.4-1.2,1.8l1.3,3.1h-1.8l-1.1-2.8H41.3z M41.3,5.6v1.8h1c0.3,0,0.6,0,0.7-0.1c0.1,0,0.3-0.1,0.4-0.3
		c0.1-0.2,0.2-0.3,0.2-0.5c0-0.2-0.1-0.4-0.2-0.5c-0.1-0.2-0.2-0.2-0.4-0.3c-0.1,0-0.4-0.1-0.8-0.1H41.3z"/>
</g>
</svg>
