<?xml version="1.0" encoding="utf-8"?>
<!-- Generator: Adobe Illustrator 24.3.0, SVG Export Plug-In . SVG Version: 6.00 Build 0)  -->
<svg version="1.1" id="Layer_1" xmlns="http://www.w3.org/2000/svg" xmlns:xlink="http://www.w3.org/1999/xlink" x="0px" y="0px"
	 viewBox="0 0 200 75" style="enable-background:new 0 0 200 75;" xml:space="preserve">
<style type="text/css">
	.st0{fill:url(#SVGID_1_);}
	.st1{fill:url(#SVGID_2_);}
	.st2{fill:none;stroke:url(#SVGID_3_);stroke-width:0.567;stroke-miterlimit:5.0314;}
	.st3{fill:url(#SVGID_4_);}
	.st4{fill:none;stroke:url(#SVGID_5_);stroke-width:0.567;stroke-miterlimit:5.0314;}
	.st5{fill:url(#SVGID_6_);}
	.st6{fill:url(#SVGID_7_);}
	.st7{fill:url(#SVGID_8_);}
	.st8{fill:url(#SVGID_9_);}
	.st9{fill:url(#SVGID_10_);}
</style>
<linearGradient id="SVGID_1_" gradientUnits="userSpaceOnUse" x1="-14.7377" y1="149.396" x2="-14.7377" y2="108.0807" gradientTransform="matrix(1.2579 0 0 -1.2579 50.7987 199.0155)">
	<stop  offset="0" style="stop-color:#A4C1FF"/>
	<stop  offset="1" style="stop-color:#0E78F9"/>
</linearGradient>
<path class="st0" d="M24.7,11.1c1,0,1.9,0,2.8,0h9.3c0.9,0,1.9,0,2.8,0c2.6,0,5.2,0,6.9,0.1c6.4,0.4,10.8,4.3,11.4,10.9
	c0.1,2.4,0.1,5.2,0.1,8.6v0c0,0.6,0,1.2,0,1.8v9.3c0,0.6,0,1.2,0,1.8c0,3.4,0,6.2-0.1,8.6c-0.6,6.6-5,10.5-11.4,10.9
	c-1.8,0.1-4.4,0.1-6.9,0.1c-1,0-1.9,0-2.8,0h-9.3c-0.9,0-1.9,0-2.8,0c-2.6,0-5.2,0-6.9-0.1C11.4,62.6,7,58.7,6.4,52.1
	c-0.1-2.4-0.1-5.2-0.1-8.6v0c0-0.6,0-1.2,0-1.8v-9.3c0-0.6,0-1.2,0-1.8v0c0-3.4,0-6.2,0.1-8.6c0.6-6.6,5-10.5,11.4-10.9
	C19.6,11.1,22.2,11.1,24.7,11.1z"/>
<g>
	
		<linearGradient id="SVGID_2_" gradientUnits="userSpaceOnUse" x1="-18.6467" y1="136.5734" x2="-18.6467" y2="120.996" gradientTransform="matrix(1.2579 0 0 -1.2579 50.7987 199.0155)">
		<stop  offset="0" style="stop-color:#FFFFFF"/>
		<stop  offset="1" style="stop-color:#C5D4F7"/>
	</linearGradient>
	<path class="st1" d="M14.7,29.6c0-1.3,1.1-2.4,2.4-2.4h16.8c3.3,0,6,2.7,6,6v11.2c0,1.3-1.1,2.4-2.4,2.4H20.8c-3.3,0-6-2.7-6-6
		V29.6z"/>
	
		<linearGradient id="SVGID_3_" gradientUnits="userSpaceOnUse" x1="-18.6467" y1="136.5734" x2="-18.6467" y2="120.996" gradientTransform="matrix(1.2579 0 0 -1.2579 50.7987 199.0155)">
		<stop  offset="0" style="stop-color:#FFFFFF"/>
		<stop  offset="1" style="stop-color:#637ACA"/>
	</linearGradient>
	<path class="st2" d="M17.1,27.5h16.8c3.2,0,5.8,2.6,5.8,5.8v11.2c0,1.2-0.9,2.1-2.1,2.1H20.8c-3.2,0-5.8-2.6-5.8-5.8V29.6
		C15,28.5,16,27.5,17.1,27.5z"/>
</g>
<g>
	
		<linearGradient id="SVGID_4_" gradientUnits="userSpaceOnUse" x1="-4.0961" y1="136.4232" x2="-4.0961" y2="121.1081" gradientTransform="matrix(1.2579 0 0 -1.2579 50.7987 199.0155)">
		<stop  offset="0" style="stop-color:#FFFFFF"/>
		<stop  offset="1" style="stop-color:#C5D4F7"/>
	</linearGradient>
	<path class="st3" d="M41.5,34.2c0-0.8,0.4-1.6,1-2.1l4.8-4.2c1-0.9,2.6-0.2,2.6,1.2v16.1c0,1.3-1.6,2.1-2.6,1.2l-4.4-3.7
		c-0.9-0.7-1.4-1.8-1.4-3V34.2z"/>
	
		<linearGradient id="SVGID_5_" gradientUnits="userSpaceOnUse" x1="-4.0961" y1="136.4231" x2="-4.0961" y2="121.1081" gradientTransform="matrix(1.2579 0 0 -1.2579 50.7987 199.0155)">
		<stop  offset="0" style="stop-color:#FFFFFF"/>
		<stop  offset="1" style="stop-color:#637ACA"/>
	</linearGradient>
	<path class="st4" d="M42.6,32.2l4.8-4.2c0.8-0.7,2.1-0.1,2.1,1v16.1c0,1.1-1.3,1.7-2.1,1L43,42.3c-0.8-0.7-1.3-1.7-1.3-2.8v-5.4
		C41.7,33.4,42.1,32.7,42.6,32.2z"/>
</g>
<g>
	<linearGradient id="SVGID_6_" gradientUnits="userSpaceOnUse" x1="62.8652" y1="38.1972" x2="87.7217" y2="38.1972">
		<stop  offset="0" style="stop-color:#A4C1FF"/>
		<stop  offset="1" style="stop-color:#0E78F9"/>
	</linearGradient>
	<path class="st5" d="M70,41.4v12.1h-7.2V23h13.4c2.5,0,4.5,0.3,5.9,0.9c1.5,0.6,2.7,1.6,3.7,3.2s1.5,3.2,1.5,5.1
		c0,3.7-1.8,6.3-5.3,7.9l5.6,13.5h-7.9l-4.7-12.1H70z M70,28.4v7.8h4.4c1.4,0,2.5-0.1,3.1-0.3c0.6-0.2,1.2-0.6,1.7-1.3
		c0.5-0.7,0.8-1.5,0.8-2.4c0-0.8-0.3-1.6-0.8-2.3c-0.5-0.7-1.1-1.1-1.7-1.2c-0.6-0.2-1.7-0.2-3.3-0.2H70z"/>
	<linearGradient id="SVGID_7_" gradientUnits="userSpaceOnUse" x1="92.8989" y1="38.1972" x2="114.6533" y2="38.1972">
		<stop  offset="0" style="stop-color:#A4C1FF"/>
		<stop  offset="1" style="stop-color:#0E78F9"/>
	</linearGradient>
	<path class="st6" d="M114.7,28.8h-14.5V35h11.4v5.7h-11.4v6.6h14.5v6H92.9V23h21.8V28.8z"/>
	<linearGradient id="SVGID_8_" gradientUnits="userSpaceOnUse" x1="118.9375" y1="38.1972" x2="138.2832" y2="38.1972">
		<stop  offset="0" style="stop-color:#A4C1FF"/>
		<stop  offset="1" style="stop-color:#0E78F9"/>
	</linearGradient>
	<path class="st7" d="M126.2,47.4h12.1v6h-19.3V23h7.2V47.4z"/>
	<linearGradient id="SVGID_9_" gradientUnits="userSpaceOnUse" x1="140.0459" y1="38.1972" x2="166.041" y2="38.1972">
		<stop  offset="0" style="stop-color:#A4C1FF"/>
		<stop  offset="1" style="stop-color:#0E78F9"/>
	</linearGradient>
	<path class="st8" d="M152.9,53.9c-4.1,0-7.3-1.5-9.5-4.6s-3.4-6.8-3.4-11.2c0-4.4,1.1-8.2,3.4-11.1c2.3-3,5.5-4.5,9.7-4.5
		c4.2,0,7.5,1.6,9.6,4.8c2.2,3.2,3.2,6.8,3.2,10.9c0,4.4-1.1,8.1-3.3,11.2C160.5,52.4,157.2,53.9,152.9,53.9z M153.1,28.3
		c-3.7,0-5.6,3.3-5.6,9.9c0,6.6,1.9,9.9,5.6,9.9c3.6,0,5.4-3.3,5.4-9.9C158.6,31.6,156.8,28.3,153.1,28.3z"/>
	<linearGradient id="SVGID_10_" gradientUnits="userSpaceOnUse" x1="170.7041" y1="38.1972" x2="195.5615" y2="38.1972">
		<stop  offset="0" style="stop-color:#A4C1FF"/>
		<stop  offset="1" style="stop-color:#0E78F9"/>
	</linearGradient>
	<path class="st9" d="M177.9,41.4v12.1h-7.2V23h13.4c2.5,0,4.5,0.3,5.9,0.9c1.5,0.6,2.7,1.6,3.7,3.2s1.5,3.2,1.5,5.1
		c0,3.7-1.8,6.3-5.3,7.9l5.6,13.5h-7.9L183,41.4H177.9z M177.9,28.4v7.8h4.4c1.4,0,2.5-0.1,3.1-0.3c0.6-0.2,1.2-0.6,1.7-1.3
		c0.5-0.7,0.8-1.5,0.8-2.4c0-0.8-0.3-1.6-0.8-2.3s-1.1-1.1-1.7-1.2c-0.6-0.2-1.7-0.2-3.3-0.2H177.9z"/>
</g>
</svg>
