<?xml version="1.0" encoding="utf-8"?>
<!-- Generator: Adobe Illustrator 24.3.0, SVG Export Plug-In . SVG Version: 6.00 Build 0)  -->
<svg version="1.1" id="Layer_1" xmlns="http://www.w3.org/2000/svg" xmlns:xlink="http://www.w3.org/1999/xlink" x="0px" y="0px"
	 viewBox="0 0 404.7 212.4" style="enable-background:new 0 0 404.7 212.4;" xml:space="preserve">
<style type="text/css">
	.st0{fill:url(#SVGID_1_);}
	.st1{fill:url(#SVGID_2_);}
	.st2{fill:none;stroke:url(#SVGID_3_);stroke-width:0.6592;stroke-miterlimit:5.0314;}
	.st3{fill:url(#SVGID_4_);}
	.st4{fill:none;stroke:url(#SVGID_5_);stroke-width:0.6592;stroke-miterlimit:5.0314;}
	.st5{fill:#FFFFFF;}
</style>
<linearGradient id="SVGID_1_" gradientUnits="userSpaceOnUse" x1="13.4534" y1="309.8183" x2="13.4534" y2="261.7864" gradientTransform="matrix(1.2579 0 0 -1.2579 17.991 393.2962)">
	<stop  offset="0" style="stop-color:#A4C1FF"/>
	<stop  offset="1" style="stop-color:#0E78F9"/>
</linearGradient>
<path class="st0" d="M26.2,3.6c1.1,0,2.2,0,3.3,0h10.9c1.1,0,2.2,0,3.3,0c3,0,6,0,8.1,0.1c7.4,0.5,12.6,5,13.2,12.6
	c0.2,2.8,0.2,6.1,0.1,10v0c0,0.7,0,1.4,0,2.1v10.9c0,0.7,0,1.4,0,2.1c0,3.9,0,7.2-0.1,10c-0.7,7.7-5.8,12.2-13.2,12.6
	c-2,0.1-5.1,0.1-8.1,0.1c-1.1,0-2.2,0-3.3,0H29.5c-1.1,0-2.2,0-3.3,0c-3,0-6,0-8.1-0.1c-7.4-0.5-12.6-5-13.2-12.6
	c-0.2-2.8-0.2-6.1-0.1-10v0c0-0.7,0-1.4,0-2.1V28.4c0-0.7,0-1.4,0-2.1v0c0-3.9,0-7.2,0.1-10C5.5,8.7,10.7,4.2,18.1,3.7
	C20.1,3.6,23.2,3.6,26.2,3.6z"/>
<g>
	
		<linearGradient id="SVGID_2_" gradientUnits="userSpaceOnUse" x1="8.9089" y1="294.9112" x2="8.9089" y2="276.8014" gradientTransform="matrix(1.2579 0 0 -1.2579 17.991 393.2962)">
		<stop  offset="0" style="stop-color:#FFFFFF"/>
		<stop  offset="1" style="stop-color:#C5D4F7"/>
	</linearGradient>
	<path class="st1" d="M14.5,25.1c0-1.5,1.2-2.8,2.8-2.8h19.5c3.9,0,7,3.1,7,7v13c0,1.5-1.2,2.8-2.8,2.8H21.6c-3.9,0-7-3.1-7-7V25.1z
		"/>
	
		<linearGradient id="SVGID_3_" gradientUnits="userSpaceOnUse" x1="8.9089" y1="294.9112" x2="8.9089" y2="276.8014" gradientTransform="matrix(1.2579 0 0 -1.2579 17.991 393.2962)">
		<stop  offset="0" style="stop-color:#FFFFFF"/>
		<stop  offset="1" style="stop-color:#637ACA"/>
	</linearGradient>
	<path class="st2" d="M17.3,22.7h19.5c3.7,0,6.7,3,6.7,6.7v13c0,1.4-1.1,2.5-2.5,2.5H21.6c-3.7,0-6.7-3-6.7-6.7v-13
		C14.9,23.8,16,22.7,17.3,22.7z"/>
</g>
<g>
	
		<linearGradient id="SVGID_4_" gradientUnits="userSpaceOnUse" x1="25.825" y1="294.7365" x2="25.825" y2="276.9317" gradientTransform="matrix(1.2579 0 0 -1.2579 17.991 393.2962)">
		<stop  offset="0" style="stop-color:#FFFFFF"/>
		<stop  offset="1" style="stop-color:#C5D4F7"/>
	</linearGradient>
	<path class="st3" d="M45.6,30.4c0-0.9,0.4-1.8,1.1-2.5l5.6-4.9c1.2-1,3-0.2,3,1.4v18.7c0,1.6-1.8,2.4-3,1.4l-5.1-4.4
		c-1-0.9-1.6-2.1-1.6-3.5V30.4z"/>
	
		<linearGradient id="SVGID_5_" gradientUnits="userSpaceOnUse" x1="25.825" y1="294.7365" x2="25.825" y2="276.9317" gradientTransform="matrix(1.2579 0 0 -1.2579 17.991 393.2962)">
		<stop  offset="0" style="stop-color:#FFFFFF"/>
		<stop  offset="1" style="stop-color:#637ACA"/>
	</linearGradient>
	<path class="st4" d="M46.9,28.2l5.6-4.9c1-0.9,2.5-0.2,2.5,1.1v18.7c0,1.3-1.5,2-2.5,1.1l-5.1-4.4c-0.9-0.8-1.5-2-1.5-3.2v-6.3
		C45.9,29.6,46.3,28.7,46.9,28.2z"/>
</g>
<g>
	<path class="st5" d="M78.8,38.8v14h-8.4V17.4h15.6c2.9,0,5.2,0.3,6.9,1c1.7,0.7,3.2,1.9,4.3,3.7c1.1,1.8,1.7,3.8,1.7,5.9
		c0,4.3-2,7.3-6.1,9.2l6.5,15.7h-9.2l-5.4-14H78.8z M78.8,23.7v9h5.1c1.7,0,2.9-0.1,3.6-0.4c0.8-0.2,1.4-0.8,2-1.6
		c0.6-0.8,0.9-1.7,0.9-2.8c0-1-0.3-1.9-0.9-2.6c-0.6-0.8-1.2-1.3-1.9-1.4c-0.7-0.2-2-0.3-3.9-0.3H78.8z"/>
	<path class="st5" d="M130.7,24.1h-16.9v7.3h13.3v6.7h-13.3v7.7h16.9v7h-25.3V17.4h25.3V24.1z"/>
	<path class="st5" d="M144.1,45.8h14.1v7h-22.5V17.4h8.4V45.8z"/>
	<path class="st5" d="M175.2,53.3c-4.8,0-8.5-1.8-11.1-5.4s-3.9-7.9-3.9-13c0-5.2,1.3-9.5,4-12.9c2.6-3.5,6.4-5.2,11.3-5.2
		c4.9,0,8.7,1.8,11.2,5.5c2.5,3.7,3.8,7.9,3.8,12.7c0,5.1-1.3,9.5-3.9,13C184,51.6,180.2,53.3,175.2,53.3z M175.4,23.6
		c-4.3,0-6.5,3.8-6.5,11.5c0,7.7,2.2,11.5,6.5,11.5c4.2,0,6.3-3.8,6.3-11.5C181.8,27.4,179.6,23.6,175.4,23.6z"/>
	<path class="st5" d="M204.2,38.8v14h-8.4V17.4h15.6c2.9,0,5.2,0.3,6.9,1c1.7,0.7,3.2,1.9,4.3,3.7c1.1,1.8,1.7,3.8,1.7,5.9
		c0,4.3-2,7.3-6.1,9.2l6.5,15.7h-9.2l-5.4-14H204.2z M204.2,23.7v9h5.1c1.7,0,2.9-0.1,3.6-0.4c0.8-0.2,1.4-0.8,2-1.6
		c0.6-0.8,0.9-1.7,0.9-2.8c0-1-0.3-1.9-0.9-2.6c-0.6-0.8-1.2-1.3-1.9-1.4c-0.7-0.2-2-0.3-3.9-0.3H204.2z"/>
</g>
</svg>
