<?xml version="1.0" encoding="utf-8"?>
<!-- Generator: Adobe Illustrator 24.3.0, SVG Export Plug-In . SVG Version: 6.00 Build 0)  -->
<svg version="1.1" id="Layer_1" xmlns="http://www.w3.org/2000/svg" xmlns:xlink="http://www.w3.org/1999/xlink" x="0px" y="0px"
	 viewBox="0 0 1366 768" style="enable-background:new 0 0 1366 768;" xml:space="preserve">
<style type="text/css">
	.st0{fill:url(#SVGID_1_);}
	.st1{fill:url(#SVGID_2_);}
	.st2{fill:none;stroke:url(#SVGID_3_);stroke-width:0.5306;stroke-miterlimit:5.0314;}
	.st3{fill:url(#SVGID_4_);}
	.st4{fill:none;stroke:url(#SVGID_5_);stroke-width:0.5306;stroke-miterlimit:5.0314;}
	.st5{fill:#FFFFFF;}
</style>
<linearGradient id="SVGID_1_" gradientUnits="userSpaceOnUse" x1="115.8483" y1="760.3749" x2="115.8483" y2="721.7128" gradientTransform="matrix(1.2579 0 0 -1.2579 -99.5346 980.4844)">
	<stop  offset="0" style="stop-color:#A4C1FF"/>
	<stop  offset="1" style="stop-color:#0E78F9"/>
</linearGradient>
<path class="st0" d="M39.2,24.1c0.9,0,1.8,0,2.7,0h8.7c0.9,0,1.8,0,2.7,0c2.4,0,4.9,0,6.5,0.1c6,0.4,10.1,4,10.6,10.2
	c0.1,2.2,0.1,4.9,0.1,8v0c0,0.5,0,1.1,0,1.7v8.7c0,0.6,0,1.1,0,1.7c0,3.1,0,5.8-0.1,8c-0.5,6.2-4.7,9.8-10.6,10.2
	c-1.6,0.1-4.1,0.1-6.5,0.1c-0.9,0-1.8,0-2.7,0h-8.7c-0.9,0-1.8,0-2.7,0c-2.4,0-4.9,0-6.5-0.1c-6-0.4-10.1-4-10.6-10.2
	c-0.1-2.2-0.1-4.9-0.1-8v0c0-0.5,0-1.1,0-1.7V44c0-0.6,0-1.1,0-1.7v0c0-3.1,0-5.8,0.1-8c0.5-6.2,4.7-9.8,10.6-10.2
	C34.3,24,36.7,24,39.2,24.1z"/>
<g>
	
		<linearGradient id="SVGID_2_" gradientUnits="userSpaceOnUse" x1="112.1904" y1="748.3757" x2="112.1904" y2="733.7988" gradientTransform="matrix(1.2579 0 0 -1.2579 -99.5346 980.4844)">
		<stop  offset="0" style="stop-color:#FFFFFF"/>
		<stop  offset="1" style="stop-color:#C5D4F7"/>
	</linearGradient>
	<path class="st1" d="M29.8,41.4c0-1.2,1-2.2,2.2-2.2h15.7c3.1,0,5.7,2.5,5.7,5.7v10.4c0,1.2-1,2.2-2.2,2.2H35.5
		c-3.1,0-5.7-2.5-5.7-5.7V41.4z"/>
	
		<linearGradient id="SVGID_3_" gradientUnits="userSpaceOnUse" x1="112.1904" y1="748.3757" x2="112.1904" y2="733.7988" gradientTransform="matrix(1.2579 0 0 -1.2579 -99.5346 980.4844)">
		<stop  offset="0" style="stop-color:#FFFFFF"/>
		<stop  offset="1" style="stop-color:#637ACA"/>
	</linearGradient>
	<path class="st2" d="M32,39.4h15.7c3,0,5.4,2.4,5.4,5.4v10.4c0,1.1-0.9,2-2,2H35.5c-3,0-5.4-2.4-5.4-5.4V41.4
		C30.1,40.3,30.9,39.4,32,39.4z"/>
</g>
<g>
	
		<linearGradient id="SVGID_4_" gradientUnits="userSpaceOnUse" x1="125.8065" y1="748.2352" x2="125.8065" y2="733.9036" gradientTransform="matrix(1.2579 0 0 -1.2579 -99.5346 980.4844)">
		<stop  offset="0" style="stop-color:#FFFFFF"/>
		<stop  offset="1" style="stop-color:#C5D4F7"/>
	</linearGradient>
	<path class="st3" d="M54.8,45.6c0-0.8,0.3-1.5,0.9-2l4.5-4c1-0.8,2.4-0.2,2.4,1.1v15.1c0,1.3-1.5,1.9-2.4,1.1l-4.1-3.5
		c-0.8-0.7-1.3-1.7-1.3-2.8V45.6z"/>
	
		<linearGradient id="SVGID_5_" gradientUnits="userSpaceOnUse" x1="125.8065" y1="748.2351" x2="125.8065" y2="733.9037" gradientTransform="matrix(1.2579 0 0 -1.2579 -99.5346 980.4844)">
		<stop  offset="0" style="stop-color:#FFFFFF"/>
		<stop  offset="1" style="stop-color:#637ACA"/>
	</linearGradient>
	<path class="st4" d="M55.9,43.8l4.5-4c0.8-0.7,2-0.1,2,0.9v15.1c0,1-1.2,1.6-2,0.9l-4.1-3.5c-0.8-0.6-1.2-1.6-1.2-2.6v-5.1
		C55.1,44.9,55.4,44.3,55.9,43.8z"/>
</g>
<g>
	<path class="st5" d="M81.5,52.4v11.3h-6.7V35.1h12.5c2.3,0,4.2,0.3,5.6,0.8c1.4,0.5,2.6,1.5,3.5,3c0.9,1.4,1.4,3,1.4,4.8
		c0,3.4-1.6,5.9-4.9,7.4l5.3,12.6h-7.4l-4.4-11.3H81.5z M81.5,40.2v7.3h4.1c1.3,0,2.3-0.1,2.9-0.3c0.6-0.2,1.1-0.6,1.6-1.3
		c0.5-0.6,0.7-1.4,0.7-2.2c0-0.8-0.2-1.5-0.7-2.1c-0.5-0.6-1-1-1.5-1.2c-0.6-0.1-1.6-0.2-3.1-0.2H81.5z"/>
	<path class="st5" d="M123.3,40.6h-13.6v5.8h10.7v5.4h-10.7V58h13.6v5.6h-20.4V35.1h20.4V40.6z"/>
	<path class="st5" d="M134.1,58h11.3v5.6h-18.1V35.1h6.8V58z"/>
	<path class="st5" d="M159.1,64.1c-3.8,0-6.8-1.4-8.9-4.3c-2.1-2.9-3.2-6.4-3.2-10.5c0-4.2,1.1-7.6,3.2-10.4
		c2.1-2.8,5.2-4.2,9.1-4.2c4,0,7,1.5,9,4.5c2,3,3,6.4,3,10.2c0,4.1-1,7.6-3.1,10.5C166.2,62.7,163.1,64.1,159.1,64.1z M159.3,40.2
		c-3.5,0-5.3,3.1-5.3,9.2c0,6.2,1.8,9.2,5.3,9.2c3.4,0,5.1-3.1,5.1-9.2C164.4,43.2,162.7,40.2,159.3,40.2z"/>
	<path class="st5" d="M182.5,52.4v11.3h-6.7V35.1h12.5c2.3,0,4.2,0.3,5.6,0.8c1.4,0.5,2.6,1.5,3.5,3s1.4,3,1.4,4.8
		c0,3.4-1.6,5.9-4.9,7.4l5.3,12.6h-7.4l-4.4-11.3H182.5z M182.5,40.2v7.3h4.1c1.3,0,2.3-0.1,2.9-0.3c0.6-0.2,1.1-0.6,1.6-1.3
		c0.5-0.6,0.7-1.4,0.7-2.2c0-0.8-0.2-1.5-0.7-2.1s-1-1-1.5-1.2c-0.6-0.1-1.6-0.2-3.1-0.2H182.5z"/>
</g>
</svg>
